<?xml version="1.0" standalone="no"?>
<!DOCTYPE svg PUBLIC "-//W3C//DTD SVG 20010904//EN"
 "http://www.w3.org/TR/2001/REC-SVG-20010904/DTD/svg10.dtd">
<svg version="1.0" xmlns="http://www.w3.org/2000/svg"
 width="16.000000pt" height="16.000000pt" viewBox="0 0 16.000000 16.000000"
 preserveAspectRatio="xMidYMid meet">
<metadata>
Created by potrace 1.11, written by Peter Selinger 2001-2013
</metadata>
<g transform="translate(0.000000,16.000000) scale(0.003333,-0.003333)"
fill="#000000" stroke="none">
<path d="M2600 3490 c-173 -144 -362 -295 -420 -337 -99 -70 -107 -74 -145
-68 -23 3 -77 29 -128 62 -63 39 -113 62 -175 79 -86 24 -212 33 -212 15 0 -5
26 -19 58 -32 51 -20 127 -67 120 -75 -2 -1 -41 9 -88 23 -47 14 -128 29 -180
34 -86 8 -103 6 -188 -17 -51 -14 -120 -41 -152 -61 -64 -38 -79 -60 -33 -48
50 12 236 23 257 15 25 -9 37 -6 -146 -39 -140 -26 -259 -78 -326 -144 -46
-45 -158 -214 -149 -224 4 -3 39 19 79 50 75 58 188 117 222 117 13 0 -13 -24
-66 -63 -61 -44 -108 -90 -160 -154 -71 -90 -74 -95 -106 -215 -18 -68 -32
-128 -32 -135 0 -35 26 -14 93 75 70 92 184 208 194 198 3 -3 -23 -45 -56 -93
-36 -51 -81 -136 -107 -199 -39 -92 -47 -125 -56 -214 -5 -58 -7 -159 -3 -225
6 -118 7 -122 58 -233 70 -153 80 -150 88 28 3 74 12 158 19 185 13 49 81 157
87 139 2 -5 -5 -57 -16 -115 -18 -98 -18 -115 -5 -245 20 -187 61 -313 135
-412 22 -29 44 -50 48 -47 5 3 7 69 4 147 -5 142 -5 144 25 212 16 37 32 64
35 59 3 -5 17 -39 31 -75 23 -62 25 -81 27 -265 l2 -198 -62 -156 c-46 -118
-76 -176 -121 -240 -33 -46 -60 -86 -60 -89 0 -3 53 -41 118 -84 139 -92 376
-211 521 -261 119 -40 288 -85 324 -85 14 0 60 29 118 74 l94 74 117 208 c92
166 123 231 149 318 l33 108 44 19 c24 10 76 42 117 70 l73 52 63 173 c50 138
78 197 134 286 61 97 74 113 102 119 30 6 34 3 57 -35 13 -22 30 -74 39 -115
13 -66 13 -79 -2 -135 -13 -50 -20 -62 -39 -64 -15 -2 -29 -16 -39 -37 -16
-33 -15 -35 40 -172 33 -82 60 -138 68 -138 8 0 49 78 98 188 64 146 85 205
93 260 l9 72 -81 167 c-74 151 -86 171 -133 209 -49 38 -55 40 -108 37 -66 -3
-65 1 11 57 72 53 115 49 259 -24 67 -34 109 -61 103 -65 -7 -4 -12 -27 -12
-51 l0 -43 148 -86 c82 -47 156 -88 165 -92 12 -4 24 9 48 59 l32 64 -56 74
c-31 41 -80 126 -110 190 l-54 115 -201 62 c-175 54 -211 62 -280 62 -75 0
-84 -3 -164 -45 l-85 -45 -103 -166 -103 -165 -96 98 -96 98 -190 94 c-185 90
-192 95 -216 140 -13 25 -47 87 -74 136 l-49 90 61 -53 61 -53 54 9 c50 8 61
5 197 -47 129 -50 146 -60 167 -92 21 -34 30 -38 116 -59 82 -20 100 -21 151
-11 57 12 57 13 57 49 0 20 7 55 16 78 22 57 13 75 -145 288 -121 163 -133
183 -143 239 -9 49 -22 76 -70 144 l-60 83 292 391 c160 215 290 395 288 401
-2 5 -145 -108 -318 -252z"/>
</g>
</svg>
